<svg xmlns="http://www.w3.org/2000/svg" width="171" height="51" viewBox="0 0 171 51">
    <g fill="none" fill-rule="evenodd">
        <path fill="#000600" stroke="#474848" d="M162.738 49H6.262C2.81 49 0 46.238 0 42.875V6.125C0 2.749 2.81 0 6.262 0h156.476C166.186 0 169 2.75 169 6.125v36.75c0 3.363-2.814 6.125-6.262 6.125z" transform="translate(1 1)"/>
        <path fill="#FFF" fill-rule="nonzero" d="M81.746 12.067s0-1.222 1.258-1.222c1.197 0 1.137 1.28 1.137 1.28v3.32H85.4v-3.32s.06-2.328-1.976-2.328c-1.318 0-1.797.99-1.797.99l-.06-.874h-1.138l.06 1.572v3.958h1.258v-3.376zm56.642 0s0-1.222 1.257-1.222c1.198 0 1.138 1.28 1.138 1.28v3.32h1.258v-3.32s.06-2.328-1.976-2.328c-1.318 0-1.677.99-1.677.99V7.41h-1.258v8.034h1.258v-3.377zM89.286 36.692c6.767 0 6.767-11.642.359-11.642-2.935 0-3.954 2.096-3.954 2.096l-.12-1.863h-2.275l.12 2.504V41h2.575v-5.878s.778 1.571 3.293 1.571l.002-.001zm-.48-9.664c4.013 0 4.013 7.744-.06 7.744-2.694 0-2.754-2.736-2.754-2.736v-2.038s.06-2.968 2.814-2.968v-.002zm-19.344-14.38c0-3.782-5.509-3.782-5.509.059 0 3.9 5.509 3.783 5.509-.058zm-1.318 0c0 2.679-2.935 2.737-2.935.059 0-2.62 2.935-2.678 2.935-.058zm28.087 0c0-3.782-5.508-3.782-5.508.059 0 3.9 5.508 3.783 5.508-.058zm-1.317 0c0 2.679-2.935 2.737-2.935.059 0-2.62 2.935-2.678 2.935-.058zm28.386-.581s0-1.223 1.258-1.223c1.197 0 1.138 1.28 1.138 1.28v3.32h1.257v-3.32s.06-2.328-1.976-2.328c-1.317 0-1.797.99-1.797.99l-.06-.873h-1.137l.06 1.572v3.958h1.257v-3.376zM43.104 17.13s-1.976-2.969-6.047-2.969c-2.276 0-4.194 1.398-5.39 1.398-1.437 0-2.755-1.281-5.091-1.281-4.493 0-8.204 4.134-7.487 10.42.659 5.649 4.792 12.051 7.845 12.051 1.917 0 2.755-1.222 5.091-1.222 2.336 0 2.994 1.164 5.032 1.164 3.414 0 6.228-5.879 6.826-7.86-4.733-1.862-5.929-8.558-.779-11.701zM37.534 7c-3.294.233-6.469 3.377-6.11 6.869 3.533.116 6.468-3.377 6.11-6.869zm30.423 29.455l-5.15-15.485h-3.175l-5.15 15.485h2.636l1.437-4.54h5.21l1.436 4.54h2.756zm-4.67-6.463h-4.253l2.096-6.81 2.157 6.81zm12.755 6.696c6.767 0 6.767-11.641.36-11.641-2.935 0-3.954 2.096-3.954 2.096l-.12-1.863h-2.275l.12 2.677v13.041h2.575V35.12s.778 1.572 3.293 1.572l.001-.004zm-.479-9.664c4.072 0 4.072 7.744-.06 7.744-2.695 0-2.754-2.736-2.754-2.736v-2.037s.06-2.97 2.814-2.97zm27.848 9.664c3.293 0 5.748-1.571 5.748-4.6 0-2.445-1.797-3.667-4.013-4.54-1.437-.582-3.054-1.164-3.054-2.736 0-1.339 1.257-2.037 2.755-2.037 1.736 0 3.054.698 3.054.698l.658-1.979s-1.317-.757-3.654-.757c-2.935 0-5.39 1.63-5.39 4.367 0 1.921 1.377 3.435 4.193 4.425 1.558.524 2.875 1.223 2.875 2.794 0 1.572-1.317 2.329-3.054 2.329-2.216 0-3.655-.99-3.655-.99l-.599 2.038s1.258.99 4.132.99l.004-.002zm8.863-3.9c0 2.503.899 3.9 3.234 3.9 1.258 0 1.977-.29 1.977-.29l-.06-1.864s-.48.117-1.138.117c-1.018 0-1.497-.699-1.497-2.096V27.14h2.814v-1.863h-2.814v-2.794l-2.516.757v2.037h-1.676v1.863h1.676v5.648zm18.027-1.98c0-7.744-11.26-7.801-11.26.175 0 7.744 11.26 7.626 11.26-.175zm-2.635.058c0 5.355-6.047 5.415-6.047.059 0-5.297 6.047-5.415 6.047-.059zm7.428-.582s.06-2.91 2.695-2.91c.42 0 .778.058.778.058v-2.329s-.359-.058-.598-.058c-2.516 0-3.175 2.503-3.175 2.503l-.12-2.27h-2.216l.06 2.387v8.791h2.575v-6.172zm10.422 6.403c2.215 0 3.832-.7 3.832-.7l-.36-1.746s-1.137.524-3.114.524c-3.773 0-3.592-3.319-3.592-3.319h7.665c.359-3.492-1.078-6.402-4.733-6.402-3.891 0-5.39 3.32-5.39 5.939 0 3.027 1.737 5.705 5.689 5.705l.003-.001zm-3.234-6.987c0-.582.598-2.969 2.754-2.969 2.695 0 2.516 2.969 2.516 2.969h-5.27zM62.46 11.42c0-2.445-1.558-3.668-4.253-3.668-1.198 0-2.156.175-2.156.175v7.45s1.078.117 1.797.117c2.874 0 4.61-1.34 4.61-4.077l.002.003zm-1.318.058c0 1.921-1.018 3.027-2.994 3.027-.54 0-.899-.058-.899-.058V8.799s.6-.059 1.019-.059c1.916 0 2.874.932 2.874 2.736v.002zM78.87 9.906h-1.198l-1.138 4.367-1.197-4.367h-1.018L73 14.273l-1.018-4.367h-1.258l1.677 5.53h1.197l1.198-4.076 1.138 4.076h1.198l1.737-5.53zm8.742 5.53h1.258V7.402h-1.258v8.034zm10.06-1.513c0 1.804 2.456 2.154 3.415.873l.12.64h1.138l-.12-1.048V12.06c0-1.514-.719-2.27-2.216-2.27-1.197 0-1.916.465-1.916.465l.24.815s.538-.408 1.497-.408c.838 0 1.138.408 1.138 1.223-1.677-.058-3.294.524-3.294 2.037h-.001zm1.258-.117c0-1.339 2.096-1.106 2.096-1.106v.815c0 1.281-2.096 1.63-2.096.291zm7.487 1.747c1.437 0 1.857-.99 1.857-.99l.06.873h1.137s-.06-.815-.06-1.513v-6.52h-1.257v3.143s-.42-.757-1.617-.757c-3.234 0-3.353 5.763-.12 5.763zm.42-4.773c1.317 0 1.317 1.397 1.317 1.397v.931s0 1.456-1.377 1.456c-1.917 0-2.037-3.783.06-3.783v-.001zm13.356 1.863c0-3.783-5.508-3.783-5.508.058 0 3.9 5.508 3.782 5.508-.058zm-1.318 0c0 2.677-2.934 2.736-2.934.058 0-2.62 2.934-2.678 2.934-.058zm13.896.99c0 1.164.48 1.92 1.557 1.92.72 0 1.018-.174 1.018-.174l-.06-.932s-.18.058-.538.058c-.48 0-.72-.29-.72-.99v-2.677h1.378v-.932h-1.377V8.567l-1.258.35v.99h-.838v.93h.838v2.795zm13.896 1.862c1.197 0 1.916-.29 1.916-.29l-.18-.874s-.479.233-1.557.233c-1.856 0-1.796-1.572-1.796-1.572h3.773c.299-1.339-.36-3.201-2.276-3.201-1.737 0-2.695 1.455-2.695 2.969 0 1.397.778 2.736 2.815 2.736zm-1.617-3.377s.12-1.455 1.377-1.455c1.378 0 1.258 1.455 1.258 1.455h-2.635z" transform="translate(1 1)"/>
    </g>
</svg>
