<svg xmlns="http://www.w3.org/2000/svg" width="136" height="57" viewBox="0 0 136 57">
    <defs>
        <linearGradient id="g6pemd7dta" x1="-73.015%" x2="212.645%" y1="-23.022%" y2="262.638%">
            <stop offset="0%" stop-color="#CC3131"/>
            <stop offset="100%" stop-color="#FFE679"/>
        </linearGradient>
        <linearGradient id="uur66b7m0b" x1="-.018%" x2="85.35%" y1="0%" y2="85.368%">
            <stop offset="0%" stop-color="#CC3131"/>
            <stop offset="100%" stop-color="#FFE679"/>
        </linearGradient>
        <linearGradient id="gg5ej98ewc" x1="12.306%" x2="87.713%" y1="12.287%" y2="87.694%">
            <stop offset="0%" stop-color="#D45D31"/>
            <stop offset="100%" stop-color="#EB9A45"/>
        </linearGradient>
    </defs>
    <g fill="none">
        <g>
            <path fill="#F4C26B" d="M29.825 0H3.663v16.52C1.259 20.57-.007 25.194 0 29.904c0 4.89 1.339 9.466 3.663 13.385v9.175h9.15c4.036 2.41 8.65 3.678 13.35 3.672 4.876 0 9.44-1.342 13.348-3.672 2.624-1.565 4.956-3.575 6.89-5.94 5.851-4.81 9.586-12.113 9.586-20.292C55.987 11.744 44.273 0 29.825 0" transform="translate(0 .864)"/>
            <path fill="#F4C26B" d="M3.666 16.495C1.258 20.536-.009 25.155 0 29.859c0 4.878 1.335 9.439 3.666 13.364V16.495z" opacity=".5" transform="translate(0 .864)"/>
            <path fill="url(#g6pemd7dta)" d="M3.666 43.223v9.167h9.142c-3.77-2.238-6.915-5.39-9.142-9.167z" transform="translate(0 .864)"/>
            <path fill="#F4C26B" d="M29.78 52.366H12.785c4.026 2.414 8.634 3.685 13.329 3.677 4.865 0 9.413-1.34 13.328-3.676 2.616-1.564 4.944-3.568 6.88-5.922-4.66 3.834-10.508 5.928-16.542 5.922v-.001z" opacity=".5" transform="translate(0 .864)"/>
            <path fill="#7C2916" d="M9.572 9.597c-2.356 1.937-4.355 4.272-5.906 6.898v9.688c0-6.285 2.218-12.07 5.906-16.586z" transform="translate(0 .864)"/>
            <path fill="#AF411E" d="M3.666 26.183v17.04c2.24 3.766 5.382 6.917 9.142 9.167h16.994c-14.46-.023-26.136-11.73-26.136-26.207z" transform="translate(0 .864)"/>
            <path fill="url(#uur66b7m0b)" d="M29.78 0H3.666v16.495c1.558-2.62 3.556-4.954 5.906-6.897-3.826 4.68-5.913 10.54-5.906 16.586 0 14.453 11.7 26.183 26.114 26.183 6.035.01 11.884-2.085 16.541-5.922 5.839-4.81 9.573-12.093 9.573-20.261C55.894 11.73 44.194 0 29.78 0zm9.98 38.3c-2.804 2.33-6.334 3.605-9.98 3.607-8.645 0-15.682-7.033-15.682-15.723-.007-3.653 1.266-7.194 3.598-10.006 2.874-3.472 7.218-5.695 12.084-5.695 8.644 0 15.682 7.033 15.682 15.723-.009 4.679-2.099 9.11-5.703 12.094h.001z" transform="translate(0 .864)"/>
            <path fill="url(#gg5ej98ewc)" d="M29.78 41.907c3.801 0 7.286-1.36 9.98-3.607 2.325-2.816 3.596-6.354 3.597-10.006 0-8.668-7.015-15.724-15.682-15.724-3.647-.006-7.18 1.271-9.98 3.608-2.324 2.816-3.596 6.354-3.597 10.006 0 8.69 7.015 15.723 15.682 15.723z" transform="translate(0 .864)"/>
            <path fill="#F4C26B" d="M43.357 28.293c.007 3.653-1.266 7.194-3.598 10.006 3.602-2.992 5.685-7.433 5.68-12.116 0-8.667-7.015-15.724-15.682-15.724-4.865 0-9.21 2.224-12.084 5.696 2.804-2.33 6.334-3.606 9.98-3.608 8.69.023 15.704 7.056 15.704 15.746z" transform="translate(0 .864)"/>
            <path fill="#F4C26B" d="M3.666 16.495C1.258 20.536-.009 25.155 0 29.859c0 4.878 1.335 9.439 3.666 13.364V16.495zM29.78 52.366H12.785c4.026 2.414 8.634 3.685 13.329 3.677 4.865 0 9.413-1.34 13.328-3.676 2.616-1.564 4.944-3.568 6.88-5.922-4.66 3.834-10.508 5.928-16.542 5.922v-.001z" opacity=".5" transform="translate(0 .864)"/>
            <path fill="#7C2916" d="M9.572 9.597c-2.356 1.937-4.355 4.272-5.906 6.898v9.688c0-6.285 2.218-12.07 5.906-16.586z" transform="translate(0 .864)"/>
            <path fill="#AF411E" d="M3.666 26.183v17.04c2.24 3.766 5.382 6.917 9.142 9.167h16.994c-14.46-.023-26.136-11.73-26.136-26.207z" transform="translate(0 .864)"/>
            <path fill="#F4C26B" d="M43.357 28.293c.007 3.653-1.266 7.194-3.598 10.006 3.602-2.992 5.685-7.433 5.68-12.116 0-8.667-7.015-15.724-15.682-15.724-4.865 0-9.21 2.224-12.084 5.696 2.804-2.33 6.334-3.606 9.98-3.608 8.69.023 15.704 7.056 15.704 15.746z" transform="translate(0 .864)"/>
        </g>
        <path fill="#EB6A38" d="M71.123 18.312v19.717h-5.114V18.312h5.114zm27.969 5.037c-.566-.454-1.109-.794-1.674-.998-.51-.21-1.056-.318-1.607-.318-.656 0-1.2.159-1.607.476-.407.318-.633.726-.633 1.226 0 .34.113.635.317.862.203.227.475.43.814.59.34.159.724.317 1.154.43.43.114.838.25 1.267.387 1.675.567 2.897 1.293 3.666 2.246.77.93 1.154 2.155 1.154 3.653 0 1.02-.158 1.928-.497 2.745-.333.807-.843 1.528-1.494 2.11-.656.59-1.448 1.044-2.399 1.362-.95.317-2.014.476-3.213.476-2.49 0-4.797-.749-6.902-2.223l2.195-4.13c.77.68 1.516 1.18 2.263 1.52.747.34 1.494.5 2.218.5.837 0 1.448-.182 1.855-.568.408-.385.611-.817.611-1.316 0-.295-.045-.544-.158-.771-.121-.237-.3-.44-.52-.59-.29-.212-.61-.38-.95-.5-.386-.158-.86-.34-1.427-.521-.66-.2-1.31-.435-1.946-.703-.633-.25-1.199-.59-1.697-.999-.514-.432-.925-.975-1.2-1.588-.293-.635-.452-1.452-.452-2.428 0-.975.159-1.86.475-2.655.301-.77.764-1.467 1.358-2.042.589-.567 1.29-.998 2.15-1.316.837-.317 1.788-.476 2.829-.476.973 0 1.99.136 3.055.408 1.063.273 2.081.658 3.054 1.18l-2.059 3.97v.001zm24.213 2.564h7.377v-7.601h5.114v19.717h-5.114v-8.123h-7.377v8.123h-5.114V18.312h5.114v7.601z"/>
    </g>
</svg>
