<svg xmlns="http://www.w3.org/2000/svg" xmlns:xlink="http://www.w3.org/1999/xlink" width="1440" height="1265" viewBox="0 0 1440 1265">
    <defs>
        <linearGradient id="przraxb8rb" x1="0%" x2="100%" y1="-39.881%" y2="139.881%">
            <stop offset="0%" stop-color="#FFE679"/>
            <stop offset="100%" stop-color="#CC3131"/>
        </linearGradient>
        <linearGradient id="1k9chgf48d" x1="0%" x2="153.213%" y1="37.733%" y2="90.993%">
            <stop offset="0%" stop-color="#FFE679"/>
            <stop offset="100%" stop-color="#CC3131"/>
        </linearGradient>
        <linearGradient id="6btw5keeee" x1="0%" x2="165.62%" y1="45.638%" y2="63.818%">
            <stop offset="0%" stop-color="#FFE679"/>
            <stop offset="100%" stop-color="#CC3131"/>
        </linearGradient>
        <linearGradient id="ybbkva3k0f" x1="8.331%" x2="165.252%" y1="34.217%" y2="61.242%">
            <stop offset="0%" stop-color="#FFE679"/>
            <stop offset="100%" stop-color="#CC3131"/>
        </linearGradient>
        <linearGradient id="eimup5l71g" x1="0%" x2="100%" y1=".565%" y2="99.435%">
            <stop offset="0%" stop-color="#FFE679"/>
            <stop offset="100%" stop-color="#CC3131"/>
        </linearGradient>
        <path id="d8tlhu7h7a" d="M0 0H1440V1265H0z"/>
    </defs>
    <g fill="none" fill-rule="evenodd">
        <mask id="ic345fh9nc" fill="#fff">
            <use xlink:href="#d8tlhu7h7a"/>
        </mask>
        <path fill="url(#przraxb8rb)" fill-rule="nonzero" d="M0 177.409C397.736 272.089 877.736 389.639 1440 9v1256H0V177.409z" mask="url(#ic345fh9nc)" opacity=".1"/>
        <path fill="url(#1k9chgf48d)" fill-rule="nonzero" d="M0 1264.416C585.158 1182.801 1065.158 1028.329 1440 801v464H0v-.584z" mask="url(#ic345fh9nc)" opacity=".1"/>
        <path fill="url(#6btw5keeee)" fill-rule="nonzero" d="M1440 1067v198.165l-1440-.584c480-9.239 960-68.018 1440-197.581z" mask="url(#ic345fh9nc)" opacity=".2" transform="matrix(-1 0 0 1 1440 0)"/>
        <path fill="url(#ybbkva3k0f)" fill-rule="nonzero" d="M0 1265.165c640-45.734 1120-111.79 1440-198.165v198.165H0z" mask="url(#ic345fh9nc)" opacity=".7"/>
        <path fill="url(#eimup5l71g)" fill-rule="nonzero" d="M0 1265.243c108.565-39.946 188.715-71.36 240.45-94.243v94.243H0z" mask="url(#ic345fh9nc)" opacity=".1" transform="matrix(-1 0 0 1 240.45 0)"/>
    </g>
</svg>
