<svg xmlns="http://www.w3.org/2000/svg" width="24" height="24" viewBox="0 0 24 24">
    <g fill="none" fill-rule="evenodd">
        <path fill="#FFF" d="M17 3v2h-2c-.552 0-1.053.225-1.414.586S13 6.448 13 7v3c0 .552.448 1 1 1h2.719l-.5 2H14c-.552 0-1 .448-1 1v7h-2v-7c0-.552-.448-1-1-1H8v-2h2c.552 0 1-.448 1-1V7c0-1.105.447-2.103 1.172-2.828C12.897 3.447 13.895 3 15 3h2zm1-2h-3c-1.657 0-3.158.673-4.243 1.757C9.672 3.841 9 5.343 9 7v2H7c-.552 0-1 .448-1 1v4c0 .552.448 1 1 1h2v7c0 .552.448 1 1 1h4c.552 0 1-.448 1-1v-7h2c.466 0 .858-.319.97-.757l1-4c.134-.536-.192-1.079-.728-1.213-.083-.021-.167-.031-.242-.03h-3V7h3c.552 0 1-.448 1-1V2c0-.552-.448-1-1-1z"/>
    </g>
</svg>
