<svg xmlns="http://www.w3.org/2000/svg" width="171" height="52" viewBox="0 0 171 52">
    <defs>
        <linearGradient id="pnj73z6ula" x1=".005%" x2="100.019%" y1=".03%" y2=".03%">
            <stop offset="0%" stop-color="#3588B7"/>
            <stop offset="100%" stop-color="#66FFD4"/>
        </linearGradient>
        <linearGradient id="0v679k0b4b" x1="-.005%" x2="99.979%" y1="-.004%" y2="-.004%">
            <stop offset="0%" stop-color="#9635C2"/>
            <stop offset="100%" stop-color="#E3424F"/>
        </linearGradient>
        <linearGradient id="cogwtg3chc" x1=".013%" x2="99.993%" y1="-.018%" y2="-.018%">
            <stop offset="0%" stop-color="#60CAB6"/>
            <stop offset="100%" stop-color="#D6FFA2"/>
        </linearGradient>
        <linearGradient id="0ritatdfhd" x1="-.08%" x2="99.88%" y1="-.008%" y2="-.008%">
            <stop offset="0%" stop-color="#FF9877"/>
            <stop offset="100%" stop-color="#FFC466"/>
        </linearGradient>
    </defs>
    <g fill="none" fill-rule="evenodd">
        <path fill="#000600" stroke="#474848" d="M162.738 50H6.262C2.81 50 0 47.182 0 43.75V6.25C0 2.805 2.81 0 6.262 0h156.476C166.186 0 169 2.805 169 6.25v37.5c0 3.432-2.814 6.25-6.262 6.25z" transform="translate(1 1)"/>
        <g fill-rule="nonzero">
            <path fill="url(#pnj73z6ula)" d="M16.27 22.273L.843 34.75c-.468-.187-.819-.748-.819-1.56V11.418c0-.873.351-1.435.877-1.622l15.37 12.478z" transform="translate(1 1) translate(19 8)"/>
            <path fill="url(#0v679k0b4b)" d="M16.27 26.39L2.187 34.563c-.526.312-.994.312-1.344.187l12.331-13.288 3.098 4.928z" transform="translate(1 1) translate(19 8)"/>
            <path fill="url(#cogwtg3chc)" d="M.898 9.795c.35-.125.818-.062 1.285.25l14.027 8.172-3.097 4.804L.898 9.795z" transform="translate(1 1) translate(19 8)"/>
            <path fill="url(#0ritatdfhd)" d="M16.212 18.217l4.968 2.87c1.17.687 1.17 1.747 0 2.433l-4.91 2.87-3.856-4.117 3.798-4.056z" transform="translate(1 1) translate(19 8)"/>
            <path fill="#FFF" d="M62.594 7.674c2.045 0 3.565-1.685 3.565-3.806C66.159 1.684 64.581 0 62.594 0c-1.987 0-3.565 1.747-3.565 3.868 0 2.121 1.578 3.806 3.565 3.806zm0-.874c-1.52 0-2.63-1.31-2.63-2.932 0-1.622 1.11-2.995 2.63-2.995 1.52 0 2.688 1.373 2.688 2.995S64.113 6.8 62.594 6.8zm-.818 23.271c2.922 0 5.201-2.37 5.201-5.49s-2.28-5.552-5.201-5.552c-2.923 0-5.202 2.433-5.202 5.552 0 3.12 2.28 5.49 5.202 5.49zm0-2.183c-1.637 0-2.923-1.498-2.923-3.307 0-1.872 1.228-3.369 2.923-3.369 1.753 0 2.922 1.435 2.922 3.37 0 1.808-1.286 3.306-2.922 3.306zm14.026.81v.937c0 1.996-.935 3.181-2.747 3.181-1.987 0-2.571-1.934-2.571-1.934l-1.987.874S69.607 35 73.055 35c3.156 0 4.91-2.184 4.91-5.74v-9.857h-2.163v.936c-.409-.624-1.52-1.31-2.747-1.31-2.746 0-4.967 2.557-4.967 5.552 0 2.932 2.22 5.49 4.967 5.49 1.228 0 2.28-.561 2.747-1.372zM136 18.967c0-.062-2.688-.062-2.688-.062l-2.747 7.362-2.981-7.362-2.572.062 4.325 10.419-2.396 5.428h2.572L136 18.966zm-14.26 9.358h.116v1.498h2.28V23.27c0-3.369-2.221-4.991-4.91-4.991-3.272 0-4.266 2.558-4.266 2.558l1.987.998s.585-1.31 2.28-1.31c1.227 0 2.571.81 2.571 2.433-1.87-1.123-7.189-.811-7.189 3.307 0 3.057 2.864 3.93 3.975 3.93 1.46 0 2.396-.624 3.156-1.872zm-33.314 1.747c2.046 0 3.507-1.185 4.325-2.433L90.94 26.39s-.7 1.498-2.513 1.498c-1.11 0-1.987-.562-2.513-1.685l6.897-3.057c-.643-2.059-2.104-4.117-4.617-4.117-2.864 0-4.91 2.433-4.91 5.552 0 3.12 2.221 5.49 5.143 5.49zm-37.989 0c2.923 0 5.202-2.37 5.202-5.49s-2.28-5.552-5.202-5.552-5.201 2.433-5.201 5.552c0 3.12 2.28 5.49 5.201 5.49zm-13.617 0c4.675 0 8.182-3.743 7.364-9.358H36.82v2.37h5.201c-.292 2.933-2.337 4.618-5.201 4.618-3.273 0-5.786-2.746-5.786-6.177 0-3.556 2.572-6.239 5.786-6.239 1.52 0 2.805.562 3.916 1.685l1.578-1.685c-1.578-1.497-3.39-2.37-5.494-2.37-4.383 0-8.182 3.868-8.182 8.61 0 4.74 3.74 8.546 8.182 8.546zm75.92-.25V13.726h-2.28v16.097h2.28zm-9.118-16.096h-5.26v16.097h2.28v-6.24h2.98c2.805 0 4.85-1.996 4.85-4.928s-2.045-4.929-4.85-4.929zM81.997 29.76V13.54h-2.279v16.22h2.28zm-8.766-1.871c-1.695 0-2.864-1.498-2.864-3.307 0-1.872 1.169-3.369 2.864-3.369 1.695 0 2.747 1.497 2.747 3.37 0 1.808-1.11 3.306-2.747 3.306zm-22.794 0c-1.636 0-2.922-1.498-2.922-3.307 0-1.872 1.228-3.369 2.922-3.369 1.754 0 2.923 1.435 2.923 3.37 0 1.808-1.286 3.306-2.923 3.306zm68.439-.125c-.818 0-1.87-.374-1.87-1.435 0-2.246 3.798-2.246 4.85-1.185 0 .623-1.11 2.62-2.98 2.62zm-33.372-3.37c0-2.183 1.637-3.243 2.747-3.243.701 0 1.578.374 1.929 1.185l-4.676 2.059zm18.176-8.297c1.578 0 2.455 1.435 2.455 2.558 0 1.123-.76 2.558-2.455 2.558h-3.039v-5.116h3.04zM36.294 3.62h-3.39v.873h2.513C35.36 5.927 34.248 6.8 32.904 6.8c-1.46 0-2.688-1.247-2.688-2.932 0-1.872 1.344-2.995 2.688-2.995s1.929.874 1.929.874l.584-.624S34.657 0 32.904 0c-1.987 0-3.565 1.684-3.565 3.868 0 2.059 1.52 3.806 3.565 3.806 1.987 0 3.682-1.56 3.39-4.055zm31.794 3.93V1.497l3.506 6.052h.935V.187h-.876v4.305l.058 1.435h-.058L68.32.187h-1.11V7.55h.877zM56.516 1.061V.187h-4.734v.874h1.928v6.488h.877V1.061h1.929zm-5.67 6.488V.187h-.876V7.55h.877zm-3.915-6.488V.187h-4.734v.874h1.928v6.488h.877V1.061h1.929zm-5.494 0V.187h-4.033V7.55h4.033v-.936h-3.156V4.305h2.864V3.43H38.28v-2.37h3.156z" transform="translate(1 1) translate(19 8)"/>
        </g>
    </g>
</svg>
