<svg xmlns="http://www.w3.org/2000/svg" width="24" height="24" viewBox="0 0 24 24">
    <g fill="none" fill-rule="evenodd">
        <path fill="#FFF" d="M7 1c-1.657 0-3.158.673-4.243 1.757C1.672 3.841 1 5.343 1 7v10c0 1.657.673 3.158 1.757 4.243C3.841 22.328 5.343 23 7 23h10c1.657 0 3.158-.673 4.243-1.757C22.328 20.159 23 18.657 23 17V7c0-1.657-.673-3.158-1.757-4.243C20.159 1.672 18.657 1 17 1H7zm0 2h10c1.105 0 2.103.447 2.828 1.172C20.553 4.897 21 5.895 21 7v10c0 1.105-.447 2.103-1.172 2.828C19.103 20.553 18.105 21 17 21H7c-1.105 0-2.103-.447-2.828-1.172C3.447 19.103 3 18.105 3 17V7c0-1.105.447-2.103 1.172-2.828C4.897 3.447 5.895 3 7 3zm9.989 8.223c-.15-.972-.571-1.857-1.194-2.567-.754-.861-1.804-1.465-3.009-1.644-.464-.074-.97-.077-1.477-.002-1.366.202-2.521.941-3.282 1.967-.761 1.026-1.133 2.347-.93 3.712.203 1.365.941 2.521 1.967 3.282 1.026.761 2.347 1.133 3.712.93 1.365-.203 2.521-.941 3.282-1.967.761-1.026 1.133-2.347.93-3.712l.001.001zm-1.978.294c.122.82-.1 1.609-.558 2.227-.458.618-1.15 1.059-1.969 1.18-.819.121-1.609-.1-2.227-.558-.618-.458-1.059-1.15-1.18-1.969-.121-.819.1-1.609.558-2.227.458-.618 1.15-1.059 1.969-1.18.313-.046.615-.042.87-.002.74.11 1.366.47 1.818.986.375.428.63.963.72 1.543h-.001zM18.5 6.5c0-.552-.448-1-1-1s-1 .448-1 1 .448 1 1 1 1-.448 1-1z"/>
    </g>
</svg>
