<svg xmlns="http://www.w3.org/2000/svg" width="24" height="24" viewBox="0 0 24 24">
    <g fill="none" fill-rule="evenodd">
        <path fill="#FFF" d="M20.833 5.262c-.186.242-.391.475-.616.696-.233.232-.347.567-.278.908.037.182.06.404.061.634 0 5.256-2.429 8.971-5.81 10.898-2.647 1.509-5.938 1.955-9.222 1.12 1.245-.361 2.46-.921 3.593-1.69.147-.099.273-.243.352-.421.224-.505-.003-1.096-.508-1.32-2.774-1.233-4.13-2.931-4.769-4.593-.417-1.084-.546-2.198-.52-3.227.021-.811.138-1.56.278-2.182.395.342.804.705 1.236 1.037 2.051 1.577 4.624 2.48 7.396 2.408.541-.015.974-.457.974-1V7.519c-.002-.179.009-.357.034-.534.113-.806.504-1.569 1.162-2.141.725-.631 1.636-.908 2.526-.846.89.062 1.753.463 2.384 1.188.252.286.649.416 1.033.304.231-.067.463-.143.695-.228h-.001zm1.591-3.079c-.74.522-1.523.926-2.287 1.205-.931-.836-2.091-1.302-3.276-1.385-1.398-.097-2.836.339-3.977 1.332-1.036.901-1.652 2.107-1.83 3.372-.037.265-.055.533-.054.8-1.922-.142-3.694-.85-5.151-1.971-.775-.596-1.461-1.309-2.034-2.115-.32-.45-.944-.557-1.394-.237-.154.109-.267.253-.335.409 0 0-.132.299-.285.76-.112.337-.241.775-.357 1.29-.163.722-.302 1.602-.326 2.571-.031 1.227.12 2.612.652 3.996.683 1.775 1.966 3.478 4.147 4.823-1.569.726-3.245 1.039-4.873.967-.552-.024-1.019.403-1.043.955-.017.389.19.736.513.918 4.905 2.725 10.426 2.678 14.666.261C19.221 17.833 22 13.434 22 7.5c-.001-.167-.008-.33-.023-.489 1.006-1.115 1.676-2.429 1.996-3.781.127-.537-.206-1.076-.743-1.203-.29-.069-.58-.003-.807.156h.001z"/>
    </g>
</svg>
